<svg width="28" height="34" viewBox="0 0 28 34" fill="none" xmlns="http://www.w3.org/2000/svg">
<path fill-rule="evenodd" clip-rule="evenodd" d="M4.59937 8.60551L3.13777 28.4833C3.03123 29.9323 4.17811 31.1666 5.63104 31.1666H22.3685C23.8214 31.1666 24.9683 29.9323 24.8618 28.4833L23.4004 8.60553C23.3684 8.17017 23.0058 7.83329 22.5693 7.83329H20.659L20.6592 11.9999L18.1592 12L18.159 7.83329H9.83352L9.83334 12L7.33334 11.9999L7.33352 7.83329H5.43046C4.99393 7.83329 4.63138 8.17016 4.59937 8.60551ZM7.33362 5.33329H5.43046C3.68435 5.33329 2.23415 6.68077 2.1061 8.42219L0.644502 28.3C0.431411 31.198 2.72518 33.6666 5.63104 33.6666H22.3685C25.2743 33.6666 27.5681 31.198 27.355 28.3L25.8937 8.42223C25.7656 6.6808 24.3154 5.33329 22.5693 5.33329H20.6589L20.6589 4.91643C20.6588 2.3852 18.6068 0.33329 16.0756 0.33329H11.917C9.38574 0.33329 7.33375 2.3852 7.33364 4.91643L7.33362 5.33329ZM9.83362 5.33329L9.83364 4.91654C9.83369 3.76598 10.7664 2.83329 11.917 2.83329H16.0756C17.2261 2.83329 18.1588 3.76598 18.1589 4.91654L18.1589 5.33329H9.83362Z" fill="white"/>
</svg>
