<svg width="32" height="34" viewBox="0 0 32 34" fill="none" xmlns="http://www.w3.org/2000/svg">
<path fill-rule="evenodd" clip-rule="evenodd" d="M28.0233 10.3333L17.2635 3.33967C16.4873 2.83513 15.5104 2.83515 14.7342 3.33972L3.97622 10.3329L14.7343 17.3265C15.5105 17.8311 16.4873 17.8311 17.2635 17.3266L28.0233 10.3333ZM18.5281 1.14356C16.9756 0.134481 15.0219 0.134522 13.4695 1.14367L1.58545 8.86888C0.55567 9.53829 0.555663 11.1275 1.58544 11.7969L13.4695 19.5225C15.0219 20.5317 16.9756 20.5318 18.5281 19.5228L30.4141 11.7975C31.444 11.1281 31.444 9.5387 30.4141 8.86928L18.5281 1.14356ZM16.1567 24.4184L29.7668 16.2291L30.9966 18.4324L17.3865 26.6217C16.5051 27.1521 15.4186 27.1559 14.5338 26.6317L1.01117 18.6208L2.22659 16.409L15.7492 24.4199C15.8756 24.4947 16.0308 24.4942 16.1567 24.4184ZM29.7272 22.6103L16.1405 31.0451C16.0145 31.1233 15.8578 31.1253 15.7299 31.0503L2.21826 23.1264L1.01285 25.3445L14.5245 33.2684C15.4193 33.7931 16.5163 33.7791 17.3984 33.2315L30.9851 24.7967L29.7272 22.6103Z" fill="white"/>
</svg>
