<svg width="25" height="24" viewBox="0 0 25 24" fill="none" xmlns="http://www.w3.org/2000/svg">
<path fill-rule="evenodd" clip-rule="evenodd" d="M22.0682 11.69C21.1023 16.1296 16.4024 19.4983 10.75 19.4983C9.93464 19.4983 9.13909 19.4282 8.3717 19.2949C9.92929 20.646 12.2095 21.4983 14.75 21.4983C16.1476 21.4983 17.4665 21.2403 18.6296 20.7833C19.1955 20.5609 21.0844 21.1849 22.2646 21.6189C22.6608 21.7647 23.0701 21.3896 22.9614 20.9817C22.6575 19.8413 22.2571 18.0907 22.5227 17.6331C22.9902 16.8277 23.25 15.9362 23.25 14.9983C23.25 13.7902 22.819 12.6591 22.0682 11.69Z" fill="#212129"/>
<path d="M20.25 10C20.25 14.1421 15.9967 17.5 10.75 17.5C9.32102 17.5 7.96574 17.2509 6.75 16.8048C6.10423 16.5678 3.67216 17.2467 2.2678 17.6764C1.86212 17.8006 1.47655 17.397 1.61365 16.9955C2.02292 15.797 2.58908 13.8878 2.25 13.3531C1.6101 12.3441 1.25 11.2052 1.25 10C1.25 5.85786 5.50329 2.5 10.75 2.5C15.9967 2.5 20.25 5.85786 20.25 10Z" fill="#212129"/>
</svg>
