<svg width="18" height="19" viewBox="0 0 18 19" fill="none" xmlns="http://www.w3.org/2000/svg">
<path fill-rule="evenodd" clip-rule="evenodd" d="M13 2.49239C13.8024 2.61753 14.5467 3.00017 15.1173 3.58805C16.5473 5.06147 16.5297 7.40995 15.0778 8.86181L14.7808 9.15889L11.3438 12.5959L7.50309 16.4365C6.12524 17.8143 3.88908 17.8071 2.52019 16.4203C1.16005 15.0425 1.17156 12.8237 2.5459 11.46L8.17759 5.87188C8.7153 5.33834 9.58319 5.34001 10.1188 5.87562C10.656 6.41273 10.656 7.28359 10.1189 7.82071L4.21179 13.7278L5.27245 14.7884L11.1795 8.88137C12.3024 7.75845 12.3024 5.93782 11.1795 4.81493C10.0596 3.69517 8.24519 3.69168 7.12106 4.80711L1.48937 10.3952C-0.471954 12.3414 -0.488367 15.5077 1.45268 17.4741C3.40621 19.4531 6.59742 19.4635 8.56375 17.4972L12.4044 13.6565L15.8414 10.2196L16.1385 9.92248C18.17 7.89101 18.1945 4.60499 16.1937 2.54337C15.3408 1.66461 14.2105 1.1136 13 0.979492V2.49239Z" fill="white"/>
</svg>
