<svg width="24" height="24" viewBox="0 0 24 24" fill="none" xmlns="http://www.w3.org/2000/svg">
<path d="M2 7.2C2 6.0799 2 5.51984 2.21799 5.09202C2.40973 4.71569 2.71569 4.40973 3.09202 4.21799C3.51984 4 4.0799 4 5.2 4H8.28741C8.91355 4 9.22662 4 9.5108 4.0863C9.76238 4.1627 9.99643 4.28796 10.1996 4.45491C10.429 4.64349 10.6027 4.90398 10.95 5.42496L11.05 5.57504C11.3973 6.09602 11.571 6.35651 11.8004 6.54509C12.0036 6.71204 12.2376 6.8373 12.4892 6.9137C12.7734 7 13.0864 7 13.7126 7H18.8C19.9201 7 20.4802 7 20.908 7.21799C21.2843 7.40973 21.5903 7.71569 21.782 8.09202C22 8.51984 22 9.0799 22 10.2V16.8C22 17.9201 22 18.4802 21.782 18.908C21.5903 19.2843 21.2843 19.5903 20.908 19.782C20.4802 20 19.9201 20 18.8 20H5.2C4.0799 20 3.51984 20 3.09202 19.782C2.71569 19.5903 2.40973 19.2843 2.21799 18.908C2 18.4802 2 17.9201 2 16.8V7.2Z" fill="#212129"/>
</svg>
