<svg width="24" height="24" viewBox="0 0 24 24" fill="none" xmlns="http://www.w3.org/2000/svg">
<path d="M9.5627 7.50543L9.61874 7.62215L14.926 20.6267C15.1347 21.1381 14.8893 21.7217 14.378 21.9304C13.9032 22.1242 13.366 21.9265 13.1246 21.4879L13.0743 21.3824L11.6931 17.999H5.40713L3.9162 21.4056C3.71055 21.8754 3.18741 22.1078 2.70865 21.9612L2.59912 21.9206C2.12932 21.715 1.89693 21.1918 2.04345 20.7131L2.08406 20.6036L7.7768 7.59899C8.11351 6.82981 9.17142 6.80444 9.5627 7.50543ZM19.0001 2C19.513 2 19.9356 2.38604 19.9934 2.88338L20.0001 3L19.9999 7H21.0001C21.513 7 21.9356 7.38604 21.9934 7.88338L22.0001 8C22.0001 8.51284 21.6141 8.93551 21.1168 8.99327L21.0001 9H19.9999L20.0001 16C20.0001 16.5128 19.6141 16.9355 19.1168 16.9933L19.0001 17C18.4873 17 18.0646 16.614 18.0069 16.1166L18.0001 16V3C18.0001 2.44772 18.4478 2 19.0001 2ZM8.66059 10.5674L6.28213 15.999H10.8771L8.66059 10.5674ZM11.0001 2H16.0001C16.513 2 16.9356 2.38604 16.9934 2.88338L17.0001 3V5.97488C17.0001 8.18401 15.2093 9.97488 13.0001 9.97488C12.4478 9.97488 12.0001 9.52716 12.0001 8.97488C12.0001 8.42259 12.4478 7.97488 13.0001 7.97488C14.0545 7.97488 14.9183 7.159 14.9946 6.12414L15.0001 5.97488V4H11.0001C10.4478 4 10.0001 3.55228 10.0001 3C10.0001 2.48716 10.3862 2.06449 10.8835 2.00673L11.0001 2H16.0001H11.0001Z" fill="#212129"/>
<path d="M11.0001 2H16.0001C16.513 2 16.9356 2.38604 16.9934 2.88338L17.0001 3V5.97488C17.0001 8.18401 15.2093 9.97488 13.0001 9.97488C12.4478 9.97488 12.0001 9.52716 12.0001 8.97488C12.0001 8.42259 12.4478 7.97488 13.0001 7.97488C14.0545 7.97488 14.9183 7.159 14.9946 6.12414L15.0001 5.97488V4H11.0001C10.4478 4 10.0001 3.55228 10.0001 3C10.0001 2.48716 10.3862 2.06449 10.8835 2.00673L11.0001 2ZM11.0001 2H16.0001H11.0001ZM9.5627 7.50543L9.61874 7.62215L14.926 20.6267C15.1347 21.1381 14.8893 21.7217 14.378 21.9304C13.9032 22.1242 13.366 21.9265 13.1246 21.4879L13.0743 21.3824L11.6931 17.999H5.40713L3.9162 21.4056C3.71055 21.8754 3.18741 22.1078 2.70865 21.9612L2.59912 21.9206C2.12932 21.715 1.89693 21.1918 2.04345 20.7131L2.08406 20.6036L7.7768 7.59899C8.11351 6.82981 9.17142 6.80444 9.5627 7.50543ZM19.0001 2C19.513 2 19.9356 2.38604 19.9934 2.88338L20.0001 3L19.9999 7H21.0001C21.513 7 21.9356 7.38604 21.9934 7.88338L22.0001 8C22.0001 8.51284 21.6141 8.93551 21.1168 8.99327L21.0001 9H19.9999L20.0001 16C20.0001 16.5128 19.6141 16.9355 19.1168 16.9933L19.0001 17C18.4873 17 18.0646 16.614 18.0069 16.1166L18.0001 16V3C18.0001 2.44772 18.4478 2 19.0001 2ZM8.66059 10.5674L6.28213 15.999H10.8771L8.66059 10.5674Z" stroke="#212129" stroke-width="0.6"/>
</svg>
