<svg width="34" height="30" viewBox="0 0 34 30" fill="none" xmlns="http://www.w3.org/2000/svg">
<path fill-rule="evenodd" clip-rule="evenodd" d="M30.3333 2.5L33.6667 2.5V0H0.333328V2.5L3.6927 2.5V28.75C3.6927 29.1917 3.92582 29.6006 4.30591 29.8256C4.68601 30.0506 5.15664 30.0583 5.5439 29.8459L9.42238 27.7183L12.3837 29.7764C12.7979 30.0643 13.3446 30.075 13.7698 29.8035L17.0119 27.733L20.2551 29.8036C20.6802 30.0749 21.2267 30.0643 21.6409 29.7765L24.6035 27.7182L28.4821 29.8459C28.8694 30.0583 29.34 30.0506 29.7201 29.8256C30.1002 29.6006 30.3333 29.1917 30.3333 28.75V2.5ZM27.8333 2.5L6.1927 2.5V26.6385L8.8988 25.154C9.31468 24.9259 9.82387 24.9528 10.2134 25.2235L13.1264 27.2481L16.339 25.1965C16.7492 24.9345 17.2741 24.9345 17.6844 25.1964L20.8984 27.2482L23.8128 25.2234C24.2023 24.9528 24.7114 24.9259 25.1272 25.154L27.8333 26.6385V2.5ZM10.3333 10.8333H23.6667V8.33334H10.3333V10.8333ZM17 17.5H10.3333V15H17V17.5Z" fill="white"/>
</svg>
