<svg width="24" height="24" viewBox="0 0 24 24" fill="none" xmlns="http://www.w3.org/2000/svg">
<path d="M8.94878 13.5757C10.848 13.5057 14.583 14.122 14.3298 17.1474C14.2454 17.6517 13.8726 17.7777 13.6967 17.7777H8.94878L4.20087 17.7777C4.02502 17.7777 3.65222 17.6517 3.56781 17.1474C3.31459 14.122 7.04961 13.5057 8.94878 13.5757Z" fill="#868686"/>
<path d="M11.903 9.16359C11.903 10.7881 10.5804 12.105 8.94878 12.105C7.31719 12.105 5.99452 10.7881 5.99452 9.16359C5.99452 7.53909 7.31719 6.22217 8.94878 6.22217C10.5804 6.22217 11.903 7.53909 11.903 9.16359Z" fill="#868686"/>
<path d="M14.958 13.7785C16.8572 13.7084 20.4444 14.4014 20.4444 16.7604C20.4444 16.957 20.326 17.3502 19.8521 17.3502H16.2981V16.7604C16.2981 15.286 15.3695 14.1336 14.958 13.7785Z" fill="#868686"/>
<path d="M17.7789 10.1256C17.7789 11.3471 16.7845 12.3372 15.5577 12.3372C14.3309 12.3372 13.3364 11.3471 13.3364 10.1256C13.3364 8.90422 14.3309 7.91405 15.5577 7.91405C16.7845 7.91405 17.7789 8.90422 17.7789 10.1256Z" fill="#868686"/>
</svg>
