<svg width="24" height="24" viewBox="0 0 24 24" fill="none" xmlns="http://www.w3.org/2000/svg">
<path d="M21.3772 12.1462C21.3849 11.4313 20.9953 10.7744 20.366 10.4279L5.70132 2.3379C5.04371 1.96596 4.27084 2.0091 3.65495 2.42841C3.02704 2.8555 2.70743 3.87657 2.88562 4.61478L4.27084 10.3445C4.41226 10.9328 4.93906 11.3479 5.54364 11.3471L13.6909 11.3471C14.1088 11.3394 14.4482 11.6788 14.4405 12.0967C14.4412 12.5061 14.1081 12.8391 13.6909 12.8462L5.53656 12.8391C4.93128 12.8391 4.40519 13.2521 4.26236 13.8404L2.86511 19.5849C2.69612 20.2631 2.8934 20.9426 3.37423 21.4234C3.4308 21.48 3.49444 21.5436 3.55879 21.5924C4.18033 22.074 4.99421 22.1369 5.68718 21.7692L20.3519 13.8503C20.9812 13.518 21.3701 12.8604 21.3772 12.1462Z" fill="#0F0E14"/>
</svg>
