<svg width="21" height="20" viewBox="0 0 21 20" fill="none" xmlns="http://www.w3.org/2000/svg">
<path d="M9.58255 0.615733C9.9307 -0.187147 11.0693 -0.187147 11.4175 0.615732L13.5238 5.47316C13.6687 5.80732 13.9838 6.03626 14.3464 6.07081L19.617 6.57304C20.4882 6.65605 20.84 7.73892 20.184 8.31814L16.2152 11.8224C15.9422 12.0635 15.8218 12.4339 15.901 12.7894L17.0521 17.9573C17.2423 18.8115 16.3212 19.4807 15.5676 19.0358L11.0084 16.3441C10.6948 16.159 10.3052 16.159 9.99161 16.3441L5.43241 19.0358C4.67882 19.4807 3.75768 18.8115 3.94794 17.9573L5.09899 12.7894C5.17817 12.4339 5.05781 12.0635 4.78479 11.8224L0.815994 8.31814C0.159996 7.73892 0.511842 6.65605 1.38301 6.57304L6.6536 6.07081C7.01618 6.03626 7.3313 5.80732 7.4762 5.47316L9.58255 0.615733Z" fill="#212129"/>
</svg>
