<svg width="25" height="24" viewBox="0 0 25 24" fill="none" xmlns="http://www.w3.org/2000/svg">
<path d="M11.5825 2.61573C11.9307 1.81285 13.0693 1.81285 13.4175 2.61573L15.5238 7.47316C15.6687 7.80732 15.9838 8.03626 16.3464 8.07081L21.617 8.57304C22.4882 8.65605 22.84 9.73892 22.184 10.3181L18.2152 13.8224C17.9422 14.0635 17.8218 14.4339 17.901 14.7894L19.0521 19.9573C19.2423 20.8115 18.3212 21.4807 17.5676 21.0358L13.0084 18.3441C12.6948 18.159 12.3052 18.159 11.9916 18.3441L7.43241 21.0358C6.67882 21.4807 5.75768 20.8115 5.94794 19.9573L7.09899 14.7894C7.17817 14.4339 7.05781 14.0635 6.78479 13.8224L2.81599 10.3181C2.16 9.73892 2.51184 8.65605 3.38301 8.57304L8.6536 8.07081C9.01618 8.03626 9.3313 7.80732 9.4762 7.47316L11.5825 2.61573Z" fill="#212129"/>
</svg>
